<svg id="visual" viewBox="0 0 900 600" width="900" height="600" xmlns="http://www.w3.org/2000/svg" xmlns:xlink="http://www.w3.org/1999/xlink" version="1.1"><rect x="0" y="0" width="900" height="600" fill="#002233"></rect><path d="M0 478L21.5 476.5C43 475 86 472 128.8 462.5C171.7 453 214.3 437 257.2 426.8C300 416.7 343 412.3 385.8 424.5C428.7 436.7 471.3 465.3 514.2 465.7C557 466 600 438 642.8 432.5C685.7 427 728.3 444 771.2 451C814 458 857 455 878.5 453.5L900 452L900 601L878.5 601C857 601 814 601 771.2 601C728.3 601 685.7 601 642.8 601C600 601 557 601 514.2 601C471.3 601 428.7 601 385.8 601C343 601 300 601 257.2 601C214.3 601 171.7 601 128.8 601C86 601 43 601 21.5 601L0 601Z" fill="#0066FF" stroke-linecap="round" stroke-linejoin="miter"></path></svg>